<svg width="143" height="134" viewBox="0 0 143 134" fill="none" xmlns="http://www.w3.org/2000/svg">
<path d="M7.07615 116.622H81.8791C85.3182 116.622 88.1168 113.826 88.1168 110.39V31.4442C88.1168 31.3486 88.0752 31.2655 88.0628 31.1741C88.0512 31.087 88.0331 31.0009 88.0087 30.9165C87.9272 30.5623 87.752 30.2366 87.5014 29.9733L58.3961 0.892163C58.0663 0.580863 57.6448 0.384147 57.1943 0.331233C57.107 0.322922 57.0238 0.281372 56.9281 0.281372H7.0512C3.59965 0.281372 0.788513 3.07771 0.788513 6.51393V110.39C0.788513 113.826 3.60797 116.622 7.07615 116.622ZM59.0074 7.37402L81.0183 29.3666H61.0866C60.5352 29.3666 60.0063 29.1478 59.6164 28.7581C59.2264 28.3685 59.0074 27.8401 59.0074 27.2891V7.37402ZM4.947 6.51393C4.947 5.36714 5.89098 4.43641 7.0512 4.43641H54.8489V27.2891C54.8489 30.7253 57.6476 33.5217 61.0866 33.5217H83.9583V110.39C83.9583 110.941 83.7393 111.469 83.3493 111.859C82.9594 112.249 82.4305 112.467 81.8791 112.467H7.07615C6.79982 112.471 6.52554 112.42 6.26899 112.317C6.01243 112.214 5.77862 112.062 5.58091 111.869C5.38319 111.676 5.22545 111.446 5.11668 111.193C5.00792 110.939 4.95026 110.666 4.947 110.39V6.51393Z" fill="#FFE600"/>
<path d="M19.5017 50.1425H69.4036C69.9551 50.1425 70.4839 49.9235 70.8739 49.5339C71.2638 49.1442 71.4829 48.6157 71.4829 48.0646C71.4829 47.5135 71.2638 46.985 70.8739 46.5953C70.4839 46.2057 69.9551 45.9868 69.4036 45.9868H19.5017C18.9503 45.9868 18.4214 46.2057 18.0315 46.5953C17.6415 46.985 17.4225 47.5135 17.4225 48.0646C17.4225 48.6157 17.6415 49.1442 18.0315 49.5339C18.4214 49.9235 18.9503 50.1425 19.5017 50.1425Z" fill="#FFE600"/>
<path d="M19.5017 66.7628H69.4036C69.9551 66.7628 70.4839 66.5439 70.8739 66.1542C71.2638 65.7645 71.4829 65.236 71.4829 64.6849C71.4829 64.1338 71.2638 63.6052 70.8739 63.2155C70.4839 62.8259 69.9551 62.6069 69.4036 62.6069H19.5017C18.9503 62.6069 18.4214 62.8259 18.0315 63.2155C17.6415 63.6052 17.4225 64.1338 17.4225 64.6849C17.4225 65.236 17.6415 65.7645 18.0315 66.1542C18.4214 66.5439 18.9503 66.7628 19.5017 66.7628Z" fill="#FFE600"/>
<path d="M19.5017 33.5224H40.2942C40.8456 33.5224 41.3745 33.3035 41.7644 32.9138C42.1544 32.5241 42.3734 31.9956 42.3734 31.4445C42.3734 30.8934 42.1544 30.3649 41.7644 29.9752C41.3745 29.5855 40.8456 29.3666 40.2942 29.3666H19.5017C18.9503 29.3666 18.4214 29.5855 18.0315 29.9752C17.6415 30.3649 17.4225 30.8934 17.4225 31.4445C17.4225 31.9956 17.6415 32.5241 18.0315 32.9138C18.4214 33.3035 18.9503 33.5224 19.5017 33.5224Z" fill="#FFE600"/>
<path d="M19.5017 83.3828H69.4036C69.9551 83.3828 70.4839 83.1639 70.8739 82.7742C71.2638 82.3846 71.4829 81.8561 71.4829 81.305C71.4829 80.7539 71.2638 80.2254 70.8739 79.8358C70.4839 79.4461 69.9551 79.2272 69.4036 79.2272H19.5017C18.9503 79.2272 18.4214 79.4461 18.0315 79.8358C17.6415 80.2254 17.4225 80.7539 17.4225 81.305C17.4225 81.8561 17.6415 82.3846 18.0315 82.7742C18.4214 83.1639 18.9503 83.3828 19.5017 83.3828Z" fill="#FFE600"/>
<path d="M19.5017 100.003H69.4036C69.9551 100.003 70.4839 99.7841 70.8739 99.3944C71.2638 99.0047 71.4829 98.4762 71.4829 97.9251C71.4829 97.374 71.2638 96.8455 70.8739 96.4558C70.4839 96.0661 69.9551 95.8472 69.4036 95.8472H19.5017C18.9503 95.8472 18.4214 96.0661 18.0315 96.4558C17.6415 96.8455 17.4225 97.374 17.4225 97.9251C17.4225 98.4762 17.6415 99.0047 18.0315 99.3944C18.4214 99.7841 18.9503 100.003 19.5017 100.003Z" fill="#FFE600"/>
<path d="M90.196 21.0565H108.909V43.9092C108.909 47.3455 111.708 50.1418 115.147 50.1418H138.019V127.01C138.019 127.561 137.8 128.089 137.41 128.479C137.02 128.869 136.491 129.088 135.939 129.088H61.1365C60.8602 129.091 60.5859 129.04 60.3294 128.937C60.0728 128.834 59.839 128.682 59.6413 128.489C59.4436 128.296 59.2858 128.067 59.1771 127.813C59.0683 127.559 59.0106 127.286 59.0074 127.01V122.855C59.0074 122.304 58.7883 121.776 58.3984 121.386C58.0084 120.996 57.4796 120.777 56.9281 120.777C56.3767 120.777 55.8478 120.996 55.4579 121.386C55.0679 121.776 54.8489 122.304 54.8489 122.855V127.01C54.8489 130.446 57.6683 133.243 61.1365 133.243H135.939C139.379 133.243 142.177 130.446 142.177 127.01V48.0643C142.177 47.9687 142.136 47.8856 142.123 47.7942C142.112 47.7071 142.093 47.621 142.069 47.5366C141.988 47.1824 141.812 46.8567 141.562 46.5934L112.456 17.5123C112.129 17.1984 111.706 17.0025 111.255 16.9555C111.167 16.943 111.084 16.9015 110.989 16.9015H90.196C89.6446 16.9015 89.1157 17.1204 88.7258 17.51C88.3359 17.8996 88.1168 18.428 88.1168 18.979C88.1168 19.53 88.3359 20.0584 88.7258 20.448C89.1157 20.8376 89.6446 21.0565 90.196 21.0565ZM115.147 45.9868C114.596 45.9868 114.067 45.7679 113.677 45.3783C113.287 44.9887 113.068 44.4602 113.068 43.9092V23.9941L135.079 45.9868H115.147Z" fill="#FFE600"/>
<path d="M98.5131 66.7628H123.464C124.015 66.7628 124.544 66.5439 124.934 66.1542C125.324 65.7645 125.543 65.236 125.543 64.6849C125.543 64.1338 125.324 63.6052 124.934 63.2155C124.544 62.8259 124.015 62.6069 123.464 62.6069H98.5131C97.9616 62.6069 97.4328 62.8259 97.0428 63.2155C96.6529 63.6052 96.4338 64.1338 96.4338 64.6849C96.4338 65.236 96.6529 65.7645 97.0428 66.1542C97.4328 66.5439 97.9616 66.7628 98.5131 66.7628Z" fill="#FFE600"/>
<path d="M98.5131 83.3828H123.464C124.015 83.3828 124.544 83.1639 124.934 82.7742C125.324 82.3846 125.543 81.8561 125.543 81.305C125.543 80.7539 125.324 80.2254 124.934 79.8358C124.544 79.4461 124.015 79.2272 123.464 79.2272H98.5131C97.9616 79.2272 97.4328 79.4461 97.0428 79.8358C96.6529 80.2254 96.4338 80.7539 96.4338 81.305C96.4338 81.8561 96.6529 82.3846 97.0428 82.7742C97.4328 83.1639 97.9616 83.3828 98.5131 83.3828Z" fill="#FFE600"/>
<path d="M98.5131 100.003H123.464C124.015 100.003 124.544 99.7841 124.934 99.3944C125.324 99.0047 125.543 98.4762 125.543 97.9251C125.543 97.374 125.324 96.8455 124.934 96.4558C124.544 96.0661 124.015 95.8472 123.464 95.8472H98.5131C97.9616 95.8472 97.4328 96.0661 97.0428 96.4558C96.6529 96.8455 96.4338 97.374 96.4338 97.9251C96.4338 98.4762 96.6529 99.0047 97.0428 99.3944C97.4328 99.7841 97.9616 100.003 98.5131 100.003Z" fill="#FFE600"/>
<path d="M98.5131 116.623H123.464C124.015 116.623 124.544 116.404 124.934 116.015C125.324 115.625 125.543 115.096 125.543 114.545C125.543 113.994 125.324 113.466 124.934 113.076C124.544 112.686 124.015 112.468 123.464 112.468H98.5131C97.9616 112.468 97.4328 112.686 97.0428 113.076C96.6529 113.466 96.4338 113.994 96.4338 114.545C96.4338 115.096 96.6529 115.625 97.0428 116.015C97.4328 116.404 97.9616 116.623 98.5131 116.623Z" fill="#FFE600"/>
</svg>
