<svg width="120" height="134" viewBox="0 0 120 134" fill="none" xmlns="http://www.w3.org/2000/svg">
<path d="M63.1471 29.1912C76.3281 29.1912 81.2154 35.4805 81.6597 44.7296H98.0248C97.5065 32.0029 89.7312 20.3121 74.2547 16.5384V0.334045H52.0396V16.3164C49.1516 16.9084 46.4858 17.8703 43.894 18.9802L55.0756 30.1531C57.4453 29.5611 60.1851 29.1912 63.1471 29.1912ZM11.0897 7.14137L0.648651 17.5743L26.122 43.0278C26.122 58.4183 37.6738 66.8534 55.0756 71.9589L81.0673 97.9303C78.5496 101.556 73.292 104.664 63.1471 104.664C47.8928 104.664 41.8947 97.8563 41.0801 89.1252H24.7891C25.6777 105.33 37.8219 114.431 52.0396 117.464V133.521H74.2547V117.612C81.3635 116.28 87.8059 113.543 92.4711 109.325L108.91 125.752L119.351 115.319L11.0897 7.14137Z" fill="#FFE600"/>
</svg>
