<svg width="127" height="49" viewBox="0 0 127 49" fill="none" xmlns="http://www.w3.org/2000/svg">
<path d="M111.606 25.8488L63.5 40.7888L15.4833 25.2954C14.5775 25.0048 13.5322 24.7858 12.4072 24.6511C11.2822 24.5164 10.0995 24.4686 8.92653 24.5103C7.75361 24.5521 6.61347 24.6826 5.57122 24.8944C4.52897 25.1063 3.60501 25.3953 2.8521 25.745C2.09918 26.0947 1.53207 26.4982 1.18312 26.9326C0.834171 27.3669 0.710227 27.8235 0.818369 28.2763C0.926511 28.7291 1.26462 29.1692 1.81339 29.5716C2.36215 29.9739 3.11083 30.3306 4.01668 30.6213L57.7667 47.9129C59.3696 48.4216 61.3803 48.6997 63.4552 48.6997C65.5302 48.6997 67.5408 48.4216 69.1438 47.9129L122.894 31.2092C123.814 30.9238 124.579 30.571 125.145 30.1711C125.711 29.7712 126.067 29.332 126.191 28.8789C126.316 28.4258 126.208 27.9676 125.873 27.5306C125.537 27.0937 124.982 26.6867 124.238 26.3329C123.492 25.9802 122.573 25.6878 121.534 25.4725C120.495 25.2572 119.356 25.1232 118.182 25.0782C117.009 25.0332 115.824 25.0781 114.695 25.2104C113.567 25.3426 112.517 25.5595 111.606 25.8488Z" fill="white"/>
<path d="M57.7667 23.7046C59.3696 24.2133 61.3803 24.4913 63.4552 24.4913C65.5302 24.4913 67.5408 24.2133 69.1438 23.7046L122.894 7.00085C123.814 6.71546 124.579 6.36267 125.145 5.96276C125.711 5.56285 126.067 5.1237 126.191 4.67056C126.316 4.21742 126.208 3.75922 125.873 3.3223C125.537 2.88538 124.982 2.47835 124.238 2.1246C123.498 1.76934 122.584 1.47398 121.549 1.2555C120.513 1.03703 119.375 0.89974 118.201 0.851534C117.027 0.803328 115.841 0.845152 114.709 0.974603C113.577 1.10405 112.523 1.31858 111.606 1.60585L63.5 16.5804L15.4833 1.0871C13.6539 0.500088 11.2953 0.217674 8.92653 0.301987C6.55771 0.386301 4.37267 0.830435 2.8521 1.53668C1.33152 2.24293 0.599966 3.15345 0.818368 4.06792C1.03677 4.98239 2.18724 5.82592 4.01668 6.41293L57.7667 23.7046Z" fill="white"/>
</svg>
