<svg width="36" height="36" viewBox="0 0 36 36" fill="none" xmlns="http://www.w3.org/2000/svg">
<path d="M36 18.1115C36 8.10603 27.9371 0 18 0C8.05613 0 0 8.10603 0 18.1115C0 27.1491 6.58012 34.6428 15.1875 36V23.348H10.6166V18.1126H15.1875V14.1202C15.1875 9.58212 17.8706 7.07594 21.9836 7.07594C23.9535 7.07594 26.0156 7.42911 26.0156 7.42911V11.8857H23.742C21.51 11.8857 20.8125 13.2837 20.8125 14.7156V18.1115H25.8041L25.002 23.3469H20.8125V35.9989C29.4131 34.6416 36 27.148 36 18.1104V18.1115Z" fill="white"/>
</svg>
