<svg width="158" height="137" viewBox="0 0 158 137" fill="none" xmlns="http://www.w3.org/2000/svg">
<path fill-rule="evenodd" clip-rule="evenodd" d="M78.6564 118.348L40.5572 94.1714V125.182C40.5572 125.182 40.5572 130.57 44.0476 131.405C55.0005 134.001 66.4548 136.479 78.6564 136.479C91.1431 136.479 103.089 134.601 114.091 131.14C116.756 130.57 116.756 125.722 116.756 125.722V94.1714L78.6564 118.348Z" fill="#FFE600"/>
<path fill-rule="evenodd" clip-rule="evenodd" d="M12.2508 68.8639H7.53137C3.4904 84.2412 0.511292 133.136 0.511292 136.174C0.511292 136.449 0.580116 136.735 0.639108 137H19.1528C19.2184 136.729 19.2547 136.452 19.261 136.174C19.2512 133.146 16.2622 84.251 12.2508 68.8639Z" fill="#FFE600"/>
<path fill-rule="evenodd" clip-rule="evenodd" d="M78.6564 0L0 48.9734L13.0766 58.7956L67.6936 46.4269C68.5982 41.2258 72.8849 37.175 78.3516 37.175C81.2851 37.175 84.0986 38.3403 86.1729 40.4147C88.2473 42.489 89.4126 45.3024 89.4126 48.236C89.4126 51.1696 88.2473 53.983 86.1729 56.0574C84.0986 58.1317 81.2851 59.2971 78.3516 59.2971C76.8989 59.283 75.465 58.9682 74.14 58.3726C72.8151 57.7769 71.6278 56.9133 70.6531 55.8362L23.3413 66.5433L78.6564 104.613L157.313 48.9734L78.6564 0Z" fill="#FFE600"/>
</svg>
