<svg width="37" height="37" viewBox="0 0 37 37" fill="none" xmlns="http://www.w3.org/2000/svg">
<path d="M36.7668 10.9558C36.7462 9.40946 36.4567 7.87852 35.9114 6.43144C35.4384 5.21083 34.716 4.1023 33.7904 3.17667C32.8648 2.25105 31.7563 1.52868 30.5356 1.05573C29.1072 0.5195 27.598 0.229551 26.0726 0.198229C24.1085 0.110438 23.4858 0.0859375 18.5 0.0859375C13.5143 0.0859375 12.8752 0.0859376 10.9254 0.198229C9.40064 0.229781 7.89223 0.519726 6.4644 1.05573C5.2436 1.52835 4.1349 2.2506 3.20923 3.17627C2.28356 4.10194 1.56131 5.21064 1.08869 6.43144C0.551385 7.85883 0.262065 9.36758 0.23323 10.8925C0.145438 12.8586 0.118896 13.4813 0.118896 18.4671C0.118896 23.4528 0.118896 24.0898 0.23323 26.0416C0.263855 27.5688 0.55173 29.0756 1.08869 30.5068C1.5621 31.7272 2.28489 32.8354 3.21087 33.7607C4.13685 34.686 5.24565 35.4079 6.46644 35.8804C7.89036 36.4382 9.39903 36.7489 10.9275 36.7992C12.8936 36.887 13.5163 36.9135 18.5021 36.9135C23.4878 36.9135 24.1269 36.9135 26.0766 36.7992C27.6021 36.7691 29.1113 36.4799 30.5397 35.9437C31.76 35.4702 32.8683 34.7477 33.7938 33.8221C34.7194 32.8966 35.4419 31.7883 35.9154 30.568C36.4524 29.1389 36.7403 27.6321 36.7709 26.1029C36.8587 24.1388 36.8852 23.5161 36.8852 18.5283C36.8811 13.5426 36.8811 12.9096 36.7668 10.9558ZM18.4878 27.8955C13.2734 27.8955 9.04914 23.6713 9.04914 18.4569C9.04914 13.2424 13.2734 9.01823 18.4878 9.01823C20.9911 9.01823 23.3918 10.0127 25.1619 11.7827C26.932 13.5528 27.9264 15.9536 27.9264 18.4569C27.9264 20.9601 26.932 23.3609 25.1619 25.131C23.3918 26.9011 20.9911 27.8955 18.4878 27.8955ZM28.3021 10.87C27.0832 10.87 26.1011 9.88594 26.1011 8.6691C26.1011 8.38021 26.158 8.09414 26.2686 7.82724C26.3792 7.56034 26.5412 7.31782 26.7455 7.11354C26.9498 6.90926 27.1923 6.74722 27.4592 6.63667C27.7261 6.52611 28.0121 6.46921 28.301 6.46921C28.5899 6.46921 28.876 6.52611 29.1429 6.63667C29.4098 6.74722 29.6523 6.90926 29.8566 7.11354C30.0609 7.31782 30.2229 7.56034 30.3335 7.82724C30.444 8.09414 30.5009 8.38021 30.5009 8.6691C30.5009 9.88594 29.5169 10.87 28.3021 10.87Z" fill="white"/>
<path d="M18.4878 24.5884C21.8739 24.5884 24.6189 21.8434 24.6189 18.4573C24.6189 15.0712 21.8739 12.3262 18.4878 12.3262C15.1016 12.3262 12.3566 15.0712 12.3566 18.4573C12.3566 21.8434 15.1016 24.5884 18.4878 24.5884Z" fill="white"/>
</svg>
