<svg width="137" height="137" viewBox="0 0 137 137" fill="none" xmlns="http://www.w3.org/2000/svg">
<path d="M81.4506 137C71.8367 137 64.3371 136.911 58.9515 136.732C53.566 136.554 49.4267 136.175 46.5337 135.595C43.6406 135.015 41.8158 134.525 41.0591 134.124C40.3025 133.722 39.0785 132.942 37.3872 131.782C36.0519 130.712 33.6262 129.842 30.11 129.173C26.5938 128.504 20.741 127.902 12.5514 127.367C11.1271 127.278 10.0144 126.743 9.21326 125.762C9.03523 125.494 8.67916 124.914 8.14506 124.022C7.61096 123.131 6.85431 121.637 5.87512 119.541C4.89594 117.444 3.98351 115.148 3.13785 112.65C2.29219 110.153 1.5578 107.031 0.934679 103.285C0.31156 99.5391 0 95.7484 0 91.9131C0 78.891 2.18092 68.9014 6.54275 61.9443C7.43292 60.6064 8.67916 59.9375 10.2815 59.9375C17.7589 59.9375 25.9707 55.3887 34.9169 46.291C43.8631 37.1934 51.5854 24.8402 58.0836 9.23145C58.2617 8.96387 58.551 8.33952 58.9515 7.3584C59.3521 6.37728 59.5969 5.75293 59.6859 5.48535C59.7749 5.21777 60.0197 4.70492 60.4203 3.94678C60.8209 3.18864 61.177 2.69808 61.4885 2.4751C61.8001 2.25212 62.2229 1.91764 62.757 1.47168C63.2911 1.02572 63.8475 0.73584 64.4261 0.602051C65.0047 0.468262 65.7168 0.334473 66.5625 0.200684C67.4081 0.0668945 68.3651 0 69.4333 0C71.0356 0 72.6824 0.356771 74.3737 1.07031C76.0651 1.78385 77.6229 2.74268 79.0471 3.94678C80.4714 5.15088 81.6286 6.51107 82.5188 8.02734C84.2101 10.7923 85.1893 14.7614 85.4564 19.9346C85.7234 25.1077 85.5676 29.9242 84.989 34.3838C84.4104 38.8434 83.6315 43.1247 82.6523 47.2275C98.4973 47.1383 109.268 47.0938 114.965 47.0938C120.218 47.0938 124.468 48.5208 127.717 51.375C130.966 54.2292 132.635 57.9753 132.724 62.6133C132.813 66.5378 132.413 69.5257 131.523 71.5771C133.036 73.0934 134.304 74.6766 135.328 76.3267C136.352 77.9767 136.908 79.8275 136.997 81.8789C137.086 86.071 135.039 90.3522 130.855 94.7227C130.944 94.901 131.122 95.3247 131.389 95.9937C131.656 96.6626 131.856 97.2201 131.99 97.666C132.124 98.112 132.235 98.6694 132.324 99.3384C132.413 100.007 132.457 100.654 132.457 101.278C132.279 106.184 129.431 110.554 123.912 114.39C124.357 117.333 124.312 119.964 123.778 122.283C121.642 132.094 107.533 137 81.4506 137ZM14.8213 118.671C29.4201 119.83 38.6779 121.882 42.5947 124.825C44.0189 125.896 45.2652 126.609 46.3334 126.966C47.4016 127.323 50.6062 127.657 55.9472 127.969C61.2882 128.281 69.7894 128.438 81.4506 128.438C85.1003 128.438 88.4162 128.348 91.3982 128.17C94.3803 127.992 97.8297 127.679 101.746 127.233C105.663 126.787 108.823 125.985 111.227 124.825C113.63 123.666 115.055 122.194 115.5 120.41C115.856 118.537 115.01 116.53 112.963 114.39C112.518 113.319 112.518 112.227 112.963 111.112C113.408 109.997 114.12 109.216 115.099 108.771H115.233C115.678 108.592 116.212 108.369 116.835 108.102C117.458 107.834 118.37 107.343 119.572 106.63C120.774 105.916 121.775 105.047 122.576 104.021C123.378 102.995 123.823 101.992 123.912 101.011C123.912 100.654 123.889 100.319 123.845 100.007C123.8 99.6952 123.756 99.4053 123.711 99.1377C123.667 98.8701 123.578 98.6025 123.444 98.335L123.111 97.666L122.777 97.1309L122.443 96.6626L122.176 96.3281L121.976 96.0605L121.909 95.9268C121.553 95.4808 121.33 94.9902 121.241 94.4551C121.152 93.9199 121.152 93.3848 121.241 92.8496C121.33 92.3145 121.531 91.8016 121.842 91.311C122.154 90.8205 122.532 90.3968 122.977 90.04C123.511 89.7725 124.09 89.3934 124.713 88.9028C125.336 88.4123 126.115 87.498 127.05 86.1602C127.984 84.8223 128.452 83.4844 128.452 82.1465C128.363 79.9167 126.671 77.8206 123.378 75.8584C122.844 75.5016 122.398 75.078 122.042 74.5874C121.686 74.0968 121.419 73.5394 121.241 72.915C121.152 72.5583 121.13 72.1792 121.174 71.7778C121.219 71.3765 121.308 70.9751 121.441 70.5737C121.575 70.1724 121.775 69.7933 122.042 69.4365C122.131 69.3473 122.22 69.2358 122.309 69.1021C122.398 68.9683 122.576 68.6338 122.844 68.0986C123.111 67.5635 123.333 67.0506 123.511 66.5601C123.689 66.0695 123.845 65.4674 123.978 64.7539C124.112 64.0404 124.179 63.3714 124.179 62.7471C124.09 61.1416 123.667 59.8037 122.91 58.7334C122.154 57.6631 121.174 56.9272 119.973 56.5259C118.771 56.1245 117.814 55.8792 117.102 55.79C116.39 55.7008 115.678 55.6562 114.965 55.6562H83.7205L76.5101 55.79C76.1541 55.79 75.798 55.7454 75.4419 55.6562C75.0859 55.5671 74.7521 55.4333 74.4405 55.2549C74.1289 55.0765 73.8396 54.8758 73.5726 54.6528C73.3055 54.4299 73.083 54.14 72.905 53.7832C72.1038 52.6237 71.9703 51.2858 72.5044 49.7695C73.9286 45.6667 75.0636 41.1624 75.9093 36.2568C76.7549 31.3512 77.1555 26.6686 77.111 22.209C77.0665 17.7493 76.4211 14.4938 75.1749 12.4424C75.0859 12.264 74.9078 11.9518 74.6408 11.5059C74.3737 11.0599 74.1957 10.7477 74.1067 10.5693C74.0177 10.391 73.8174 10.1457 73.5058 9.8335C73.1943 9.52132 72.8827 9.29834 72.5711 9.16455C72.2596 9.03076 71.8367 8.89697 71.3026 8.76318C70.7685 8.62939 70.1454 8.5625 69.4333 8.5625C69.1662 8.5625 68.8992 8.65169 68.6321 8.83008C68.3651 9.00846 67.9645 9.40983 67.4304 10.0342C66.8963 10.6585 66.4067 11.5059 65.9616 12.5762C59.1073 29.166 50.8287 42.3888 41.1259 52.2446C31.423 62.1004 22.0317 67.4743 12.952 68.3662C12.2398 69.9717 11.6167 71.5771 11.0826 73.1826C10.5485 74.7881 9.99216 77.3301 9.41355 80.8086C8.83494 84.2871 8.54564 87.9886 8.54564 91.9131C8.54564 95.9268 8.94621 99.9181 9.74736 103.887C10.5485 107.856 11.3719 110.978 12.2176 113.252C13.0632 115.527 13.9312 117.333 14.8213 118.671Z" fill="#FFE600"/>
</svg>
