<svg width="34" height="36" viewBox="0 0 34 36" fill="none" xmlns="http://www.w3.org/2000/svg">
<path d="M33.8251 32.5836L31.3698 25.2H28.6755L30.1717 32.4H3.8292L5.32541 25.2H2.63116L0.17401 32.5836C-0.449259 34.4628 0.655382 36 2.63116 36H31.3698C33.3456 36 34.4502 34.4628 33.8251 32.5836ZM25.9813 9C25.9813 6.61305 25.0351 4.32387 23.3509 2.63604C21.6666 0.948211 19.3823 0 17.0005 0C14.6186 0 12.3343 0.948211 10.6501 2.63604C8.96585 4.32387 8.01966 6.61305 8.01966 9C8.01966 17.595 17.0005 27 17.0005 27C17.0005 27 25.9813 17.595 25.9813 9ZM12.1508 9.108C12.1508 6.4242 14.3206 4.2498 17.0005 4.2498C18.2864 4.2498 19.5197 4.76174 20.4291 5.673C21.3384 6.58426 21.8492 7.82019 21.8492 9.1089C21.8492 10.3976 21.3384 11.6335 20.4291 12.5448C19.5197 13.4561 18.2864 13.968 17.0005 13.968C15.7143 13.968 14.4807 13.456 13.5713 12.5445C12.6618 11.6331 12.1508 10.397 12.1508 9.108Z" fill="white"/>
</svg>
