<svg width="38" height="38" viewBox="0 0 38 38" fill="none" xmlns="http://www.w3.org/2000/svg">
<path d="M19 37C28.9414 37 37 28.9414 37 19C37 9.0586 28.9414 1 19 1C9.0586 1 1 9.0586 1 19C1 28.9414 9.0586 37 19 37ZM15.4 15.4L24.4 13.6L22.6 22.6L13.6 24.4L15.4 15.4ZM19 22.6C19.9548 22.6 20.8705 22.2207 21.5456 21.5456C22.2207 20.8705 22.6 19.9548 22.6 19C22.6 18.0452 22.2207 17.1295 21.5456 16.4544C20.8705 15.7793 19.9548 15.4 19 15.4C18.0452 15.4 17.1295 15.7793 16.4544 16.4544C15.7793 17.1295 15.4 18.0452 15.4 19C15.4 19.9548 15.7793 20.8705 16.4544 21.5456C17.1295 22.2207 18.0452 22.6 19 22.6Z" stroke="white" stroke-width="2"/>
</svg>
