<svg width="39" height="39" viewBox="0 0 39 39" fill="none" xmlns="http://www.w3.org/2000/svg">
<path d="M9.43252 36.217C12.4458 38.0303 15.8911 38.986 19.431 38.986C30.1578 38.986 39 30.2328 39 19.4929C39 8.76542 30.1703 0 19.431 0C8.72436 0 0.0139847 8.74459 0.0139847 19.4929C0.0139847 23.0801 0.970001 26.5516 2.78295 29.5672L4.5 32L6.5 34.0146L9.43252 36.217ZM2.29855 19.4929C2.29855 10.0041 9.98417 2.28426 19.431 2.28426C28.9617 2.28426 36.7157 10.0041 36.7157 19.4929C36.7157 28.9819 28.9617 36.7015 19.431 36.7015C16.1514 36.7015 12.9644 35.7725 10.2154 34.0146L9.77618 33.734L7.5 32L5.26598 29.2238L4.98539 28.7849C3.22749 26.0353 2.29855 22.8224 2.29855 19.4929Z" fill="white"/>
<path d="M9.49322 15.9013C9.87051 17.8827 10.9905 21.6936 14.2513 24.9544C17.5121 28.2153 21.3231 29.3355 23.3047 29.7128C25.5738 30.1448 28.9037 30.21 30.5309 28.5827L31.4382 27.6755C31.8961 27.2176 32.1484 26.6085 32.1484 25.9607C32.1484 25.313 31.8961 24.7042 31.4382 24.2463L27.8102 20.6183C27.352 20.1601 26.7432 19.9081 26.0954 19.9081C25.4477 19.9081 24.8389 20.1601 24.3807 20.6183L23.4737 21.5252C22.9197 22.0793 21.8738 22.0816 21.3156 21.5321L17.6969 17.7616C17.6915 17.7559 17.6862 17.7503 17.6805 17.7449C17.1256 17.19 17.1256 16.2869 17.6805 15.732L18.5874 14.8251C19.5354 13.8771 19.5354 12.3432 18.5874 11.3956L14.9594 7.76757C14.0141 6.82227 12.4758 6.82227 11.5302 7.76757L10.6233 8.67479V8.67449C9.32451 9.97358 8.89158 12.7425 9.49322 15.9013ZM12.2387 10.2902C13.1908 9.35974 13.1399 9.34189 13.245 9.34189C13.281 9.34189 13.317 9.35558 13.3444 9.38295C17.1672 13.2264 17.0137 13.0005 17.0137 13.1106C17.0137 13.149 16.9997 13.1826 16.9726 13.21L16.0654 14.1169C14.6208 15.5615 14.6152 17.8999 16.0562 19.3511L19.677 23.1239C19.6827 23.1293 19.6881 23.1349 19.6937 23.1406C21.138 24.5849 23.6401 24.5897 25.0891 23.1406L25.996 22.2337C26.0508 22.1789 26.14 22.1789 26.1948 22.2337C30.0177 26.0768 29.8641 25.851 29.8641 25.961C29.8641 25.9997 29.8502 26.0331 29.8231 26.0604L28.9159 26.9673C28.2943 27.5889 26.3144 27.9609 23.732 27.469C22.0086 27.1405 18.6948 26.1675 15.8667 23.3394C13.0385 20.5112 12.0655 17.1974 11.7373 15.474C11.2452 12.8916 11.6171 10.9114 12.2387 10.2902Z" fill="white"/>
</svg>
