<svg width="36" height="36" viewBox="0 0 36 36" fill="none" xmlns="http://www.w3.org/2000/svg">
<path d="M18 0C8.05587 0 0 8.05703 0 18C0 27.943 8.05703 36 18 36C27.9441 36 36 27.943 36 18C36 8.05703 27.943 0 18 0ZM26.8409 12.3317L23.8866 26.2533C23.6683 27.2404 23.0806 27.4796 22.2608 27.0151L17.7608 23.6985L15.5903 25.7888C15.3511 26.028 15.1479 26.2312 14.6834 26.2312L15.0027 21.6511L23.3419 14.1166C23.7054 13.7973 23.2618 13.6161 22.7822 13.9355L12.4757 20.4236L8.03381 19.037C7.06877 18.7328 7.04671 18.072 8.23703 17.6075L25.5914 10.915C26.3973 10.6246 27.101 11.1112 26.8397 12.3306L26.8409 12.3317Z" fill="white"/>
</svg>
