<svg width="142" height="138" viewBox="0 0 142 138" fill="none" xmlns="http://www.w3.org/2000/svg">
<path d="M145 29.5715V34.5001C145 35.1536 144.74 35.7804 144.278 36.2426C143.815 36.7047 143.188 36.9643 142.533 36.9643H135.133V40.6608C135.133 42.7021 133.477 44.3572 131.433 44.3572H10.5667C8.52334 44.3572 6.86667 42.7021 6.86667 40.6608V36.9643H-0.533333C-1.18753 36.9643 -1.81494 36.7047 -2.27753 36.2426C-2.74012 35.7804 -3 35.1536 -3 34.5001V29.5715C-3 29.084 -2.85524 28.6074 -2.58406 28.2021C-2.31287 27.7968 -1.92744 27.4809 -1.47652 27.2945L70.0568 0.187369C70.6607 -0.0624564 71.3393 -0.0624564 71.9432 0.187369L143.477 27.2945C143.927 27.4809 144.313 27.7968 144.584 28.2021C144.855 28.6074 145 29.084 145 29.5715ZM137.6 123.214H4.4C0.313042 123.214 -3 126.524 -3 130.607V135.536C-3 136.189 -2.74012 136.816 -2.27753 137.278C-1.81494 137.74 -1.18753 138 -0.533333 138H142.533C143.188 138 143.815 137.74 144.278 137.278C144.74 136.816 145 136.189 145 135.536V130.607C145 126.524 141.687 123.214 137.6 123.214ZM21.6667 49.2858V108.429H10.5667C8.52334 108.429 6.86667 110.084 6.86667 112.125V118.286H135.133V112.125C135.133 110.084 133.477 108.429 131.433 108.429H120.333V49.2858H100.6V108.429H80.8667V49.2858H61.1333V108.429H41.4V49.2858H21.6667Z" fill="#FFE600"/>
</svg>
