<svg width="39" height="39" viewBox="0 0 39 39" fill="none" xmlns="http://www.w3.org/2000/svg">
<path d="M19.5 0C14.3283 0 9.36838 2.05446 5.71142 5.71142C2.05446 9.36838 0 14.3283 0 19.5C0 24.6717 2.05446 29.6316 5.71142 33.2886C9.36838 36.9455 14.3283 39 19.5 39C24.6717 39 29.6316 36.9455 33.2886 33.2886C36.9455 29.6316 39 24.6717 39 19.5C39 14.3283 36.9455 9.36838 33.2886 5.71142C29.6316 2.05446 24.6717 0 19.5 0ZM2.405 20.9733H7.84333C7.93 22.945 8.20517 24.9037 8.66667 26.8233H3.98667C3.11395 24.9836 2.57824 23.0022 2.405 20.9733ZM20.9733 9.27333V2.57833C23.0613 3.37182 24.777 4.91752 25.7833 6.91167C26.2275 7.6635 26.6197 8.44567 26.9533 9.25167L20.9733 9.27333ZM27.95 12.1983C28.4527 14.1115 28.7517 16.0723 28.8383 18.0483H20.9733V12.1983H27.95ZM18.0267 2.57833V9.27333H12.0467C12.3809 8.46668 12.7719 7.68472 13.2167 6.93333C14.2187 4.93102 15.9349 3.3771 18.0267 2.57833ZM18.0267 12.1983V18.0483H10.1833C10.27 16.0723 10.569 14.1115 11.0717 12.1983H18.0267ZM7.84333 18.0267H2.405C2.57824 15.9978 3.11395 14.0164 3.98667 12.1767H8.66667C8.20428 14.0956 7.92855 16.0547 7.84333 18.0267ZM10.1833 20.9733H18.0267V26.8233H11.0717C10.5691 24.9103 10.2713 22.9493 10.1833 20.9733ZM18.0483 29.64V36.335C15.9604 35.5415 14.2446 33.9958 13.2383 32.0017C12.7935 31.2503 12.4026 30.4683 12.0683 29.6617L18.0483 29.64ZM20.9733 36.335V29.7483H26.9533C26.6191 30.555 26.2281 31.337 25.7833 32.0883C24.777 34.0825 23.0613 35.6282 20.9733 36.4217V36.335ZM20.9733 26.715V20.865H28.8167C28.7287 22.841 28.4309 24.802 27.9283 26.715H20.9733ZM31.1783 20.865H36.6167C36.4434 22.8939 35.9077 24.8752 35.035 26.715H30.3333C30.7883 24.83 31.0635 22.9082 31.1567 20.9733L31.1783 20.865ZM31.1783 17.94C31.0791 16.0037 30.7962 14.0811 30.3333 12.1983H35.0133C35.8865 14.04 36.4217 16.0203 36.595 18.0483L31.1783 17.94ZM33.345 9.27333H29.4667C28.7649 7.30232 27.7478 5.45832 26.455 3.81333C29.1512 5.02359 31.4931 6.90311 33.2583 9.27333H33.345ZM12.545 3.81333C11.2522 5.45832 10.2351 7.30232 9.53333 9.27333H5.74167C7.5069 6.90311 9.84884 5.02359 12.545 3.81333ZM5.72 29.8133H9.53333C10.2351 31.7844 11.2522 33.6283 12.545 35.2733C9.84138 34.0449 7.49872 32.1424 5.74167 29.7483L5.72 29.8133ZM26.4333 35.2733C27.7261 33.6283 28.7433 31.7844 29.445 29.8133H33.2583C31.4823 32.1518 29.1413 34.0007 26.455 35.1867L26.4333 35.2733Z" fill="white"/>
</svg>
