<svg width="37" height="37" viewBox="0 0 37 37" fill="none" xmlns="http://www.w3.org/2000/svg">
<path d="M9.31335 20.8274H10.8038V28.1979H12.2329V20.8274H13.7234V19.582H9.31335V20.8274Z" fill="white"/>
<path d="M16.8471 26.6664C16.6021 26.9522 15.765 27.5239 15.765 26.7072V21.8276H14.4991V27.1564C14.4991 28.7693 16.1121 28.3405 16.8675 27.5035V28.1976H18.1333V21.8276H16.8675V26.6664H16.8471Z" fill="white"/>
<path d="M21.5633 21.7869C20.8283 21.7869 20.3588 22.3382 20.3588 22.3382V19.5615H19.0725V28.1978H20.3588V27.7078C20.3588 27.7078 20.7875 28.2794 21.5633 28.2794C22.2371 28.2794 22.7475 27.6874 22.7475 26.8707V23.3386C22.7475 22.379 22.2983 21.7869 21.5633 21.7869ZM21.4204 26.7074C21.4204 27.1769 21.0938 27.4015 20.665 27.2178C20.5492 27.1636 20.4452 27.0873 20.3588 26.9932V23.0324C20.4404 22.9507 20.5425 22.8894 20.6242 22.8282C21.0733 22.6036 21.4204 22.9507 21.4204 23.4203V26.7074Z" fill="white"/>
<path d="M26.1367 26.3806C26.1367 26.8706 25.8713 27.1973 25.565 27.2177C25.2383 27.2381 24.9117 26.9727 24.9117 26.3806V25.176H27.3413V23.5427C27.3475 23.294 27.3037 23.0466 27.2126 22.8151C27.1214 22.5836 26.9846 22.3728 26.8104 22.1952C26.4592 21.8748 25.9995 21.6997 25.5242 21.7052C25.075 21.7052 24.6054 21.8481 24.2379 22.134C23.85 22.4402 23.605 22.9098 23.605 23.5427V26.401C23.605 26.9727 23.7888 27.4219 24.0746 27.7485C24.4217 28.116 24.8913 28.3202 25.3813 28.3406C25.9733 28.361 26.6063 28.116 26.9738 27.6056C27.1983 27.2994 27.3413 26.891 27.3413 26.401V26.0744H26.1367V26.3806ZM24.9117 23.5427C24.9117 23.1956 25.1158 22.7873 25.5038 22.7873C25.8917 22.7873 26.1367 23.1548 26.1367 23.5427V24.196H24.9117V23.5427Z" fill="white"/>
<path d="M18.4804 0.125C16.0672 0.125134 13.6777 0.600576 11.4483 1.52418C9.21886 2.44779 7.19317 3.80147 5.4869 5.50793C3.78062 7.2144 2.42717 9.24023 1.50381 11.4698C0.58045 13.6993 0.105274 16.0889 0.105408 18.502C0.105542 20.9152 0.580985 23.3047 1.50459 25.5342C2.4282 27.7636 3.78188 29.7893 5.48834 31.4956C7.19481 33.2018 9.22064 34.5553 11.4502 35.4786C13.6797 36.402 16.0693 36.8772 18.4825 36.877C23.3561 36.8768 28.03 34.9405 31.476 31.4941C34.9219 28.0477 36.8577 23.3736 36.8575 18.5C36.8572 13.6264 34.9209 8.95247 31.4745 5.50649C28.0282 2.06051 23.354 0.124729 18.4804 0.125ZM21.7062 7.00542H23.3396V12.4771C23.3396 12.8242 23.5029 12.8242 23.5642 12.8242C23.8092 12.8242 24.1767 12.5588 24.3604 12.375V6.985H25.9937V14.2125H24.3604V13.5796C24.1358 13.7838 23.9112 13.9471 23.6867 14.0696C23.3804 14.2329 23.0946 14.2942 22.8087 14.2942C22.6523 14.3017 22.496 14.2744 22.3513 14.2144C22.2066 14.1544 22.0769 14.0631 21.9717 13.9471C21.7879 13.7225 21.7062 13.3754 21.7062 12.9467V7.00542ZM16.5 8.90417C16.5 7.78125 17.4187 6.8625 18.5417 6.8625C19.6646 6.8625 20.5833 7.78125 20.5833 8.90417V12.375C20.5833 13.4979 19.6646 14.4167 18.5417 14.4167C17.4187 14.4167 16.5 13.4979 16.5 12.375V8.90417ZM12.2533 4.51458L13.2333 8.10792L14.2337 4.51458H16.0917L14.1725 10.1904V14.2125H12.3554V10.1904L10.3954 4.51458H12.2533ZM28.3825 30.1171C27.3412 31.1379 18.5212 31.1583 18.5212 31.1583C18.5212 31.1583 9.72166 31.1379 8.65999 30.1171C7.61874 29.0963 7.61874 24.0125 7.61874 23.9717C7.61874 23.9513 7.61874 18.8675 8.65999 17.8263C9.70124 16.8054 18.5212 16.785 18.5212 16.785C18.5212 16.785 27.3208 16.8054 28.3825 17.8263C29.4237 18.8471 29.4442 23.9308 29.4442 23.9717C29.4442 23.9717 29.4442 29.0758 28.3825 30.1171Z" fill="white"/>
<path d="M18.5008 13.0899C18.8479 13.0899 19.0112 12.8858 19.0317 12.5591V8.67994C19.0317 8.41453 18.7662 8.18994 18.5212 8.18994C18.2763 8.18994 18.0108 8.39411 18.0108 8.67994V12.5591C18.0108 12.8654 18.1537 13.0695 18.5008 13.0899Z" fill="white"/>
</svg>
